<svg width="49" height="49" viewBox="0 0 49 49" fill="none" xmlns="http://www.w3.org/2000/svg">
<path d="M41.36 1H7.63C3.96835 1 1 3.96835 1 7.63V41.36C1 45.0216 3.96835 47.99 7.63 47.99H41.36C45.0216 47.99 47.99 45.0216 47.99 41.36V7.63C47.99 3.96835 45.0216 1 41.36 1Z" stroke="#141F39" stroke-width="2" stroke-miterlimit="10"/>
<path d="M39.24 12H11.89C10.8462 12 10 12.8462 10 13.89V37.65C10 38.6938 10.8462 39.54 11.89 39.54H39.24C40.2838 39.54 41.13 38.6938 41.13 37.65V13.89C41.13 12.8462 40.2838 12 39.24 12Z" stroke="#141F39" stroke-width="2" stroke-linecap="round" stroke-linejoin="round"/>
<path d="M13.7402 9.16016V15.3102M24.5002 9.16016V15.3102M35.2502 9.16016V15.3102M16.5002 26.3002L21.9802 31.7802L32.4902 21.2702" stroke="#DA3960" stroke-width="2" stroke-linecap="round" stroke-linejoin="round"/>
</svg>
