<svg width="49" height="49" viewBox="0 0 49 49" fill="none" xmlns="http://www.w3.org/2000/svg">
<path d="M15.9546 15.9546H33.0455" stroke="#DA3960" stroke-width="2" stroke-linecap="round" stroke-linejoin="round"/>
<path d="M15.9546 24.5H33.0455" stroke="#DA3960" stroke-width="2" stroke-linecap="round" stroke-linejoin="round"/>
<path d="M15.9546 33.0454H24.5" stroke="#DA3960" stroke-width="2" stroke-linecap="round" stroke-linejoin="round"/>
<path d="M32.1605 48H3.13636C2.56976 48 2.02637 47.7749 1.62573 47.3743C1.22508 46.9736 1 46.4302 1 45.8636V3.13636C1 2.56976 1.22508 2.02637 1.62573 1.62573C2.02637 1.22508 2.56976 1 3.13636 1H45.8636C46.4302 1 46.9736 1.22508 47.3743 1.62573C47.7749 2.02637 48 2.56976 48 3.13636V32.1605C48 32.4411 47.9447 32.7189 47.8374 32.9781C47.73 33.2373 47.5727 33.4728 47.3743 33.6712L33.6712 47.3743C33.4728 47.5727 33.2373 47.73 32.9781 47.8374C32.7189 47.9447 32.4411 48 32.1605 48V48Z" stroke="#141F39" stroke-width="2" stroke-linecap="round" stroke-linejoin="round"/>
<path d="M47.8069 33.0432H33.0454V47.8055" stroke="#141F39" stroke-width="2" stroke-linecap="round" stroke-linejoin="round"/>
</svg>
