<svg xmlns="http://www.w3.org/2000/svg" width="614" height="386" viewBox="0 0 614 386" fill="none"><g clip-path="url(#clip0_101_2)"><path d="M261.987 122.351C261.987 122.351 264.566 112.971 271.656 113.115H280.965V85.1519H273.755C273.755 85.1519 262.431 94.8566 261.999 122.339L261.987 122.351Z" fill="#64E6C6"></path><path d="M316.545 85.6917H336.23C343.86 85.6917 350.05 91.8816 350.05 99.5111C350.05 107.141 343.86 113.33 336.23 113.33H316.545V85.6917Z" fill="url(#paint0_linear_101_2)"></path><path d="M379.908 14.7835C379.908 7.54992 374.354 1.62389 367.276 1.02409C367.18 0.988103 367.12 0.964111 367.12 0.964111H324.27C310.595 11.6646 313.246 36.5803 313.246 36.5803C313.246 36.5803 315.681 28.9868 323.095 28.6749L352.425 28.6029H366.076C366.316 28.6029 366.544 28.5789 366.772 28.5669H367.12C367.12 28.5669 367.144 28.5669 367.192 28.5429C374.306 27.9791 379.896 22.0411 379.896 14.7835H379.908Z" fill="url(#paint1_linear_101_2)"></path><path d="M273.743 85.1641C273.743 85.1641 272.927 85.248 271.512 85.4999C250.255 89.4226 234.924 108.112 234.924 129.741V175.23C234.924 193.452 246.2 210.007 263.403 215.993C263.966 216.184 264.554 216.376 265.142 216.568C265.142 216.568 284.54 211.122 285.511 178.625C285.511 178.625 283.184 188.51 274.595 188.654C266.006 188.798 262.803 183.351 262.695 174.906C262.587 166.461 262.383 121.2 262.383 121.2C262.383 121.2 263.031 95.5166 273.743 85.1641Z" fill="url(#paint2_linear_101_2)"></path><path d="M285.511 178.049V40.335C285.511 32.2617 287.863 24.2963 292.637 17.7825C304.417 1.70786 324.27 0.964111 324.27 0.964111C324.27 0.964111 313.33 8.5216 313.246 36.5803L312.838 174.558C312.814 180.7 311.759 186.83 309.407 192.516C297.399 221.571 265.142 216.568 265.142 216.568C265.142 216.568 283.904 211.338 285.511 178.049Z" fill="url(#paint3_linear_101_2)"></path></g><path d="M5.75808 358.942V296.658C5.75808 295.443 6.3019 294.483 7.38954 293.779C8.47718 293.075 9.75675 292.724 11.2283 292.724H44.7211C46.0007 292.724 46.9604 293.267 47.6002 294.355C48.2399 295.379 48.5598 296.626 48.5598 298.098C48.5598 299.633 48.208 300.945 47.5042 302.032C46.8644 303.12 45.9367 303.664 44.7211 303.664H18.2339V322.858H32.917C34.1326 322.858 35.0603 323.337 35.7001 324.297C36.4039 325.257 36.7558 326.44 36.7558 327.848C36.7558 329.127 36.4039 330.247 35.7001 331.207C35.0603 332.166 34.1326 332.646 32.917 332.646H18.2339V358.942C18.2339 360.157 17.5941 361.117 16.3146 361.821C15.099 362.524 13.6595 362.876 11.996 362.876C10.2686 362.876 8.79707 362.524 7.58148 361.821C6.36588 361.117 5.75808 360.157 5.75808 358.942ZM62.1693 358.942V296.562C62.1693 295.283 62.7771 294.323 63.9927 293.683C65.2083 293.043 66.6798 292.724 68.4072 292.724C70.1347 292.724 71.6062 293.043 72.8218 293.683C74.0374 294.323 74.6452 295.283 74.6452 296.562V351.936H98.0614C99.213 351.936 100.109 352.48 100.748 353.567C101.452 354.655 101.804 355.935 101.804 357.406C101.804 358.878 101.452 360.157 100.748 361.245C100.109 362.332 99.213 362.876 98.0614 362.876H67.6395C66.168 362.876 64.8884 362.524 63.8008 361.821C62.7131 361.117 62.1693 360.157 62.1693 358.942ZM114.731 341.475V296.562C114.731 295.283 115.339 294.323 116.555 293.683C117.77 293.043 119.242 292.724 120.969 292.724C122.697 292.724 124.168 293.043 125.384 293.683C126.599 294.323 127.207 295.283 127.207 296.562V341.475C127.207 348.833 130.726 352.512 137.764 352.512C144.801 352.512 148.32 348.833 148.32 341.475V296.562C148.32 295.283 148.928 294.323 150.144 293.683C151.359 293.043 152.831 292.724 154.558 292.724C156.285 292.724 157.757 293.043 158.973 293.683C160.188 294.323 160.796 295.283 160.796 296.562V341.475C160.796 349.025 158.685 354.591 154.462 358.174C150.303 361.693 144.737 363.452 137.764 363.452C130.79 363.452 125.192 361.693 120.969 358.174C116.811 354.655 114.731 349.089 114.731 341.475ZM175.167 357.118C175.167 356.478 175.423 355.711 175.935 354.815L192.537 327.752L176.511 300.785C175.935 299.825 175.647 298.929 175.647 298.098C175.647 296.498 176.479 295.123 178.142 293.971C179.87 292.82 181.693 292.244 183.612 292.244C185.404 292.244 186.779 293.139 187.739 294.931L200.791 318.443L213.842 294.931C214.866 293.139 216.274 292.244 218.065 292.244C219.984 292.244 221.776 292.82 223.439 293.971C225.167 295.123 226.03 296.498 226.03 298.098C226.03 298.929 225.742 299.825 225.167 300.785L209.14 327.752L225.742 354.815C226.19 355.647 226.414 356.414 226.414 357.118C226.414 358.782 225.518 360.253 223.727 361.533C221.936 362.748 220.112 363.356 218.257 363.356C216.721 363.356 215.602 362.684 214.898 361.341L200.791 336.677L186.779 361.341C186.012 362.684 184.86 363.356 183.324 363.356C181.533 363.356 179.71 362.748 177.854 361.533C176.063 360.253 175.167 358.782 175.167 357.118ZM268.04 359.037V296.562C268.04 295.539 268.551 294.643 269.575 293.875C270.599 293.107 271.91 292.724 273.51 292.724H290.496C297.342 292.724 302.812 294.483 306.907 298.002C311.001 301.521 313.049 307.087 313.049 314.7V340.9C313.049 348.513 311.001 354.079 306.907 357.598C302.812 361.117 297.342 362.876 290.496 362.876H273.51C271.91 362.876 270.599 362.492 269.575 361.725C268.551 360.957 268.04 360.061 268.04 359.037ZM280.515 351.936H290.496C297.214 351.936 300.573 348.257 300.573 340.9V314.7C300.573 307.343 297.214 303.664 290.496 303.664H280.515V351.936ZM331.386 358.942V296.562C331.386 295.283 331.994 294.323 333.209 293.683C334.425 293.043 335.896 292.724 337.624 292.724C339.351 292.724 340.823 293.043 342.038 293.683C343.254 294.323 343.862 295.283 343.862 296.562V358.942C343.862 360.157 343.222 361.117 341.942 361.821C340.727 362.524 339.287 362.876 337.624 362.876C335.896 362.876 334.425 362.524 333.209 361.821C331.994 361.117 331.386 360.157 331.386 358.942ZM362.288 341.475V314.7C362.288 307.151 364.303 301.617 368.334 298.098C372.428 294.515 377.771 292.724 384.36 292.724C391.142 292.724 396.644 294.387 400.867 297.714C405.153 301.041 407.297 305.519 407.297 311.149C407.297 313.453 406.785 315.02 405.761 315.852C404.802 316.684 403.234 317.099 401.059 317.099C396.964 317.099 394.885 315.788 394.821 313.165C394.629 310.35 393.829 308.078 392.422 306.351C391.014 304.56 388.487 303.664 384.84 303.664C378.122 303.664 374.764 307.343 374.764 314.7V341.475C374.764 348.833 378.09 352.512 384.744 352.512C387.943 352.512 390.406 351.584 392.134 349.729C393.925 347.873 394.821 345.122 394.821 341.475V335.813H387.047C385.832 335.813 384.872 335.333 384.168 334.374C383.529 333.414 383.209 332.262 383.209 330.919C383.209 329.639 383.561 328.52 384.264 327.56C384.968 326.536 385.896 326.024 387.047 326.024H403.362C404.578 326.024 405.537 326.44 406.241 327.272C406.945 328.04 407.297 328.968 407.297 330.055V341.475C407.297 349.089 405.249 354.655 401.155 358.174C397.06 361.693 391.59 363.452 384.744 363.452C377.898 363.452 372.428 361.693 368.334 358.174C364.303 354.655 362.288 349.089 362.288 341.475ZM424.902 358.942V296.562C424.902 295.283 425.51 294.323 426.726 293.683C427.941 293.043 429.413 292.724 431.14 292.724C432.868 292.724 434.339 293.043 435.555 293.683C436.77 294.323 437.378 295.283 437.378 296.562V358.942C437.378 360.157 436.738 361.117 435.459 361.821C434.243 362.524 432.804 362.876 431.14 362.876C429.413 362.876 427.941 362.524 426.726 361.821C425.51 361.117 424.902 360.157 424.902 358.942ZM451.965 298.29C451.965 296.818 452.285 295.539 452.925 294.451C453.629 293.299 454.62 292.724 455.9 292.724H496.495C497.774 292.724 498.734 293.299 499.374 294.451C500.077 295.539 500.429 296.818 500.429 298.29C500.429 299.825 500.077 301.169 499.374 302.32C498.67 303.408 497.71 303.952 496.495 303.952H482.483V358.942C482.483 360.157 481.843 361.117 480.564 361.821C479.348 362.524 477.909 362.876 476.245 362.876C474.518 362.876 473.046 362.524 471.831 361.821C470.615 361.117 470.007 360.157 470.007 358.942V303.952H455.9C454.684 303.952 453.725 303.408 453.021 302.32C452.317 301.233 451.965 299.889 451.965 298.29ZM504.527 357.694C504.527 357.566 504.591 357.246 504.719 356.734L523.241 296.37C523.625 295.027 524.553 294.003 526.024 293.299C527.56 292.532 529.287 292.148 531.206 292.148C533.126 292.148 534.853 292.532 536.389 293.299C537.924 294.003 538.884 295.027 539.268 296.37L557.79 356.734C557.918 357.246 557.982 357.566 557.982 357.694C557.982 359.101 557.118 360.317 555.39 361.341C553.663 362.364 551.904 362.876 550.112 362.876C547.745 362.876 546.337 362.044 545.89 360.381L542.243 347.617H520.266L516.619 360.381C516.171 362.044 514.764 362.876 512.397 362.876C510.541 362.876 508.75 362.396 507.023 361.437C505.359 360.413 504.527 359.165 504.527 357.694ZM522.857 337.829H539.556L531.206 308.366L522.857 337.829ZM572.3 358.942V296.562C572.3 295.283 572.907 294.323 574.123 293.683C575.339 293.043 576.81 292.724 578.537 292.724C580.265 292.724 581.736 293.043 582.952 293.683C584.168 294.323 584.775 295.283 584.775 296.562V351.936H608.192C609.343 351.936 610.239 352.48 610.879 353.567C611.582 354.655 611.934 355.935 611.934 357.406C611.934 358.878 611.582 360.157 610.879 361.245C610.239 362.332 609.343 362.876 608.192 362.876H577.77C576.298 362.876 575.019 362.524 573.931 361.821C572.843 361.117 572.3 360.157 572.3 358.942Z" fill="#13366F"></path><defs><linearGradient id="paint0_linear_101_2" x1="350.05" y1="99.5111" x2="316.545" y2="99.5111" gradientUnits="userSpaceOnUse"><stop stop-color="#13366F"></stop><stop offset="0.26" stop-color="#153B71"></stop><stop offset="0.59" stop-color="#1D4C7A"></stop><stop offset="0.96" stop-color="#296687"></stop><stop offset="1" stop-color="#2B6A89"></stop></linearGradient><linearGradient id="paint1_linear_101_2" x1="313.042" y1="18.7782" x2="379.908" y2="18.7782" gradientUnits="userSpaceOnUse"><stop stop-color="#13366F"></stop><stop offset="0.13" stop-color="#153A71"></stop><stop offset="0.28" stop-color="#1B4978"></stop><stop offset="0.45" stop-color="#266084"></stop><stop offset="0.62" stop-color="#358294"></stop><stop offset="0.8" stop-color="#49ACA9"></stop><stop offset="0.98" stop-color="#61DFC3"></stop><stop offset="1" stop-color="#64E6C6"></stop></linearGradient><linearGradient id="paint2_linear_101_2" x1="260.212" y1="85.1641" x2="260.212" y2="216.568" gradientUnits="userSpaceOnUse"><stop stop-color="#13366F"></stop><stop offset="0.13" stop-color="#153A71"></stop><stop offset="0.28" stop-color="#1B4978"></stop><stop offset="0.45" stop-color="#266084"></stop><stop offset="0.62" stop-color="#358294"></stop><stop offset="0.8" stop-color="#49ACA9"></stop><stop offset="0.98" stop-color="#61DFC3"></stop><stop offset="1" stop-color="#64E6C6"></stop></linearGradient><linearGradient id="paint3_linear_101_2" x1="294.7" y1="216.904" x2="294.7" y2="0.964111" gradientUnits="userSpaceOnUse"><stop offset="0.15" stop-color="#13366F"></stop><stop offset="0.31" stop-color="#20527D"></stop><stop offset="0.66" stop-color="#419AA0"></stop><stop offset="1" stop-color="#64E6C6"></stop></linearGradient><clipPath id="clip0_101_2"><rect width="144.984" height="215.94" fill="white" transform="translate(234.924 0.964111)"></rect></clipPath></defs></svg>