<svg xmlns="http://www.w3.org/2000/svg" width="414" height="520" viewBox="0 0 414 520" fill="none">
<path d="M276.869 132.829C277.21 132.829 277.38 132.659 277.721 132.659C278.233 132.488 278.744 132.147 278.744 131.636C278.403 128.908 273.8 128.396 271.754 128.055C267.492 127.373 263.23 126.691 258.968 125.669C257.774 125.328 256.24 125.328 255.388 124.475C254.535 123.793 254.535 122.429 254.024 121.577C253.171 120.384 251.978 119.872 251.296 118.679C250.784 117.656 250.443 116.462 249.761 115.61C246.693 110.836 241.067 112.03 236.634 109.643C231.519 106.915 226.746 103.164 222.654 99.0727C220.779 97.1973 219.074 94.981 218.051 92.5942C217.199 90.5484 216.005 86.1157 218.051 84.2404C220.267 82.365 225.893 88.5025 227.598 89.6959C232.372 93.1057 237.316 95.1515 242.772 96.6859C245.67 97.5383 248.398 98.3908 251.296 98.7317C252.489 98.9022 253.853 98.9022 255.047 99.4137C256.24 99.9251 257.092 100.948 257.945 101.8C260.161 103.676 262.207 105.21 263.741 107.597C265.617 110.154 267.492 112.882 269.026 115.61C270.561 118.338 271.584 120.895 272.436 123.964C273.289 126.862 274.823 129.249 276.528 131.636C278.233 134.022 279.597 136.58 281.301 138.796C282.836 140.842 285.052 142.376 286.587 144.422C289.655 148.514 287.439 154.31 286.246 158.743C284.711 164.539 282.495 170.166 281.472 176.133C280.449 182.27 279.767 188.749 279.426 194.886C279.085 200.001 278.744 205.286 281.472 209.889C282.665 211.935 284.2 213.64 285.734 215.344C286.587 216.197 287.609 217.22 288.291 218.243C289.144 219.607 289.314 221.141 289.314 222.675C289.314 225.744 289.485 227.79 290.849 230.688C292.213 233.245 293.576 235.803 295.111 238.19C301.93 248.76 310.455 258.136 317.445 268.536C321.025 273.821 323.923 279.618 327.333 284.903C330.572 290.188 334.323 295.132 337.732 300.247C341.313 305.532 344.893 310.987 347.962 316.613C350.689 321.557 353.076 326.502 356.486 331.105C362.964 339.799 371.489 346.96 378.138 355.655C385.639 365.372 392.118 376.113 397.232 387.195C399.789 392.821 402.347 398.617 403.711 404.584C405.075 410.381 405.756 416.518 405.756 422.485C405.756 428.452 405.416 434.76 402.858 440.216C400.301 445.842 397.914 451.639 395.186 457.265C393.822 460.163 392.629 463.061 391.265 465.959C390.242 468.346 389.049 470.733 387.344 472.779C383.252 477.041 376.092 477.041 370.807 475.848C365.01 474.484 359.384 471.415 354.27 468.346C349.155 465.277 344.04 461.868 339.949 457.435C332.106 449.252 326.992 438.682 321.195 428.964C317.956 423.508 314.376 418.053 311.307 412.427C308.409 406.971 306.192 401.175 304.317 395.208C300.055 382.421 296.134 369.635 293.576 356.337C292.213 349.858 290.849 343.38 289.826 336.901C289.485 334.003 288.973 331.275 288.291 328.547C287.609 325.649 286.416 322.921 285.393 320.023C283.518 314.397 282.324 308.43 279.938 302.974C278.744 300.247 277.38 297.689 276.357 294.962C275.334 292.234 274.823 289.165 273.8 286.437C269.708 275.356 266.81 263.422 257.774 255.238C254.024 251.828 249.591 248.93 245.329 246.202C241.067 243.475 236.634 240.747 233.224 236.996C229.303 232.734 226.916 227.108 226.234 221.311C225.893 218.413 225.893 215.344 226.405 212.276C226.916 209.377 227.939 206.65 228.451 203.751C229.133 200.853 229.474 197.955 230.496 195.057C231.519 192.158 232.542 189.09 233.565 186.191C235.782 180.054 238.168 173.916 240.214 167.608C242.26 161.471 244.817 155.333 247.204 149.366C248.398 146.468 249.42 143.399 250.443 140.501C251.296 138.114 252.489 135.898 253.512 133.681C254.194 131.977 255.047 130.442 255.558 128.737C256.069 127.032 256.069 126.18 254.365 125.328C252.489 124.475 250.443 124.816 248.398 125.157C245.499 125.669 242.601 126.01 239.703 126.18C235.27 126.18 230.837 126.18 226.405 127.373C221.972 128.567 218.733 130.954 216.176 134.534C212.425 139.648 208.845 144.934 205.605 150.389C204.242 152.776 202.196 154.822 201.173 157.379C200.15 159.595 199.979 162.153 199.979 164.539C199.979 167.438 200.15 170.336 200.15 173.234C200.15 176.303 199.979 179.372 199.979 182.441C199.809 185.68 199.809 188.749 199.979 191.988C200.15 194.034 200.491 196.079 202.025 197.614C204.583 200.512 209.868 201.365 213.107 199.319C216.517 197.273 217.369 191.988 217.71 188.408C218.392 182.611 217.71 176.644 217.71 170.677C217.54 164.71 221.631 160.959 226.405 158.061C228.451 156.697 231.008 155.163 233.395 154.481C236.123 153.628 240.214 153.969 242.942 154.481C245.84 155.163 248.057 157.379 250.443 159.084C252.66 160.789 255.558 162.153 257.604 164.199C259.138 165.903 259.65 168.12 259.991 170.166C260.502 173.064 261.014 175.962 261.355 178.86C261.696 181.929 261.866 185.168 261.184 188.067C260.673 191.135 259.479 194.034 258.456 196.932C256.24 202.558 253.853 207.843 249.932 212.446C246.181 216.879 241.919 220.8 236.975 224.039C234.759 225.403 232.031 227.79 229.303 227.449C226.916 227.108 227.769 223.357 227.598 221.652C227.598 215.003 227.428 208.695 228.962 202.217C229.644 199.148 230.496 196.25 231.178 193.181C231.86 190.283 232.031 187.385 232.372 184.316C232.713 180.906 233.565 177.837 234.077 174.428C234.418 172.723 234.759 170.507 233.054 169.313C230.837 167.779 225.552 168.631 225.382 171.87C225.211 173.575 225.893 175.451 226.405 176.985C226.916 179.201 227.598 181.418 227.939 183.634C228.621 187.385 229.474 192.67 226.405 195.738C223.677 198.637 217.54 200.512 214.641 196.761C213.959 195.909 212.254 197.102 212.936 197.955C215.494 201.194 219.756 201.024 223.336 199.66C227.087 198.296 229.815 195.568 230.496 191.476C231.178 187.214 230.156 182.782 229.133 178.69C228.621 176.644 228.11 174.769 227.769 172.723C227.598 171.529 227.598 171.018 228.962 170.506C230.326 170.166 232.201 170.166 232.542 171.87C232.883 173.405 232.201 175.11 231.86 176.644C231.519 178.178 231.008 179.883 230.837 181.418C230.497 184.486 230.326 187.555 229.815 190.624C228.792 196.932 226.405 202.899 225.893 209.207C225.552 212.446 225.723 215.685 225.723 218.754C225.723 221.311 225.382 224.21 225.893 226.767C226.916 230.859 232.542 228.472 234.929 227.108C244.476 221.482 253.171 213.469 257.945 203.41C260.502 197.955 263.059 191.988 263.741 186.021C264.423 180.395 263.23 174.428 262.207 168.802C261.866 166.926 261.355 165.051 260.161 163.517C258.797 161.641 256.581 160.618 254.706 159.254C252.148 157.55 249.761 155.333 247.204 153.799C244.988 152.605 242.601 152.435 240.214 152.264C237.486 152.094 234.588 151.923 232.031 153.117C229.815 154.14 227.598 155.333 225.552 156.527C221.802 158.743 217.54 162.153 216.346 166.585C215.664 169.143 216.005 171.87 216.176 174.428C216.346 177.667 216.346 180.736 216.346 183.975C216.346 186.873 216.005 189.771 215.153 192.67C214.471 195.057 213.618 197.784 210.891 198.296C208.333 198.807 205.265 197.955 203.56 195.909C201.855 193.693 202.025 190.112 202.025 187.385C202.025 181.247 202.537 175.11 202.196 168.802C202.025 165.903 202.025 162.835 202.537 160.107C203.048 157.038 204.924 154.992 206.628 152.435C210.038 146.979 213.448 141.524 217.199 136.239C218.903 133.852 220.438 131.636 222.995 130.272C225.041 129.078 227.428 128.396 229.815 128.055C234.929 127.203 240.044 127.885 244.988 127.203C247.375 126.862 250.443 125.839 252.83 126.521C254.194 126.862 254.024 127.373 253.512 128.567C253.171 129.59 252.66 130.613 252.319 131.636C251.466 133.681 250.443 135.557 249.591 137.603C248.398 140.16 247.716 143.058 246.693 145.615C244.476 151.753 241.749 157.55 239.532 163.687C237.316 170.166 235.1 176.644 232.713 183.122C230.496 188.919 228.28 194.716 227.087 201.024C226.064 206.82 224.018 212.105 224.018 218.072C224.189 223.528 225.723 229.154 228.621 233.927C231.349 238.36 235.27 241.599 239.532 244.498C243.794 247.396 248.398 250.124 252.489 253.192C257.433 256.943 261.355 261.205 264.253 266.831C265.617 269.559 266.981 272.457 268.003 275.526C269.026 278.424 269.879 281.493 270.902 284.391C272.095 287.29 272.777 290.188 273.8 293.257C274.652 295.984 275.846 298.712 277.039 301.27C279.597 306.896 281.131 312.863 283.006 318.83C283.859 321.728 285.052 324.456 285.905 327.354C286.927 330.423 287.439 333.832 287.95 337.072C289.996 350.199 292.724 363.156 296.304 375.943C298.18 382.421 300.225 389.07 302.442 395.549C304.488 401.516 306.533 407.483 309.602 413.109C312.671 418.905 316.422 424.361 319.661 429.987C322.559 435.101 325.457 440.216 328.526 445.16C331.424 449.934 334.493 454.537 338.244 458.628C342.165 462.891 347.109 466.3 351.883 469.199C361.089 474.825 372.341 480.962 383.423 477.382C388.367 475.848 390.924 472.267 392.97 467.664C395.698 461.868 398.596 456.071 400.983 450.104C403.199 444.649 406.268 439.364 407.291 433.567C408.314 427.941 408.143 422.144 407.802 416.348C406.779 403.732 402.517 392.48 396.721 381.398C391.265 370.828 384.787 360.258 377.115 351.222C369.784 342.698 361.089 335.196 355.293 325.649C352.053 320.364 349.496 314.738 346.086 309.453C342.847 304.168 339.267 299.053 335.687 293.939C331.936 288.483 328.356 283.027 324.946 277.401C321.707 271.946 318.297 266.49 314.546 261.205C307.045 250.976 298.35 241.429 292.554 229.836C291.872 228.301 291.19 226.938 291.19 225.233C291.19 223.698 291.36 222.164 291.19 220.629C290.849 218.072 289.485 216.538 287.78 214.833C284.029 211.082 281.301 206.991 281.301 201.365C281.131 194.716 281.983 187.896 282.836 181.247C283.347 178.008 283.688 174.939 284.541 171.87C285.393 168.802 286.416 165.562 287.268 162.494C288.632 158.061 290.337 153.117 290.167 148.343C289.996 143.058 284.882 140.671 282.154 136.58C280.449 134.022 278.915 131.465 277.21 129.078C276.357 127.714 275.505 126.351 274.823 124.816C274.311 123.282 273.971 121.747 273.459 120.213C271.413 114.757 267.833 109.131 264.082 104.699C262.207 102.653 259.82 100.948 257.774 99.0727C256.24 97.7088 254.876 97.3678 253.001 97.0269C249.761 96.6859 246.693 95.663 243.453 94.8105C240.555 93.9581 237.657 93.1057 234.929 91.7418C232.201 90.3779 229.644 88.673 227.257 86.7977C225.723 85.6043 224.529 84.4109 222.995 83.388C220.267 81.5126 216.687 80.8307 215.153 84.4109C213.277 89.014 215.664 94.2991 218.562 97.8793C221.972 102.141 226.405 105.21 231.008 108.279C233.395 109.813 235.611 111.518 238.339 112.2C240.726 112.882 243.453 112.882 245.499 114.416C247.886 116.121 248.057 119.19 250.102 121.236C250.614 121.747 251.125 122.088 251.637 122.6C251.978 123.111 252.148 123.623 252.319 124.134C252.66 125.157 253.171 125.669 254.024 126.18C255.899 127.203 258.627 127.544 260.843 127.885C263.059 128.226 265.105 128.737 267.322 129.078C268.856 129.419 270.561 129.59 272.095 129.931C273.118 130.101 276.016 130.613 276.187 131.977C276.528 131.636 276.869 131.295 277.21 130.954C276.869 130.954 276.698 131.124 276.357 131.124C275.505 131.465 275.505 133.34 276.869 132.829Z" fill="#efcec9"/>
<path d="M283.006 177.833C287.269 178.344 291.531 175.957 295.111 173.911C299.203 171.525 303.294 168.456 308.068 167.092C310.455 166.41 313.012 166.58 315.569 166.58C318.127 166.58 320.854 166.751 323.412 166.751C328.015 166.921 332.447 167.092 337.051 167.433C343.529 167.944 350.178 168.967 355.804 172.206C362.112 175.787 366.886 181.754 370.977 187.721C378.479 198.461 379.161 212.1 380.695 224.716C382.4 238.696 385.98 252.506 388.367 266.485C390.924 280.636 393.311 294.616 396.039 308.596C397.403 315.415 398.767 322.064 399.79 328.883C400.812 335.532 401.835 342.011 403.37 348.66C404.052 351.729 405.075 354.797 405.927 357.866C406.78 361.276 407.461 364.686 408.143 368.266C408.655 371.505 409.166 374.574 410.189 377.813C410.701 379.518 411.042 381.052 411.212 382.757C411.383 384.633 411.212 386.508 411.212 388.383C411.042 395.544 411.212 402.534 411.212 409.694C411.212 412.933 411.383 416.173 411.383 419.412C411.383 421.799 411.212 423.844 410.36 425.89C410.019 426.743 408.825 429.811 407.461 429.47C406.098 429.129 405.927 431.005 407.12 431.346C410.701 432.369 412.576 426.231 413.258 423.674C413.769 420.946 413.428 418.048 413.258 415.32C413.088 411.74 413.258 407.989 413.258 404.409C413.258 400.658 413.258 397.078 413.258 393.327C413.258 389.918 413.599 386.337 413.428 382.757C413.258 379.347 411.894 376.108 411.212 372.699C410.53 369.289 410.019 365.709 409.166 362.299C408.484 358.889 407.461 355.65 406.439 352.411C405.586 349.001 404.734 345.591 404.222 342.181C403.029 335.532 402.176 328.713 400.812 321.894C398.255 307.402 395.186 292.911 392.629 278.42C391.436 271.259 390.242 264.099 388.708 256.938C387.344 249.948 385.81 242.958 384.446 235.798C383.252 228.808 382.57 221.818 381.718 214.828C381.036 208.179 379.502 201.871 377.285 195.563C375.41 190.449 372.512 186.186 369.102 181.924C366.715 179.026 364.328 176.298 361.43 173.911C356.316 169.82 350.348 167.433 343.87 166.41C334.834 165.046 325.457 165.046 316.422 164.705C313.864 164.705 311.307 164.364 308.92 164.876C306.704 165.387 304.488 166.41 302.442 167.433C298.009 169.82 293.917 172.888 289.314 174.764C287.269 175.616 285.223 176.128 283.006 175.957C281.472 175.787 281.813 177.662 283.006 177.833Z" fill="#efcec9"/>
<path d="M262.55 47.5835C261.868 47.754 261.356 48.4359 261.015 48.9474C260.504 49.9703 260.163 50.9932 259.822 52.0162C258.969 54.7439 258.287 57.4717 257.435 60.37C257.094 61.5634 256.923 62.7568 256.583 63.9502C256.412 64.2912 256.412 64.8026 256.242 65.1436V65.3141C256.071 65.8256 255.73 66.5075 255.56 67.019C253.855 71.7926 252.15 76.5662 249.763 80.9988C247.376 85.602 245.16 90.2051 241.58 93.9558C240.727 94.8082 242.432 96.0017 243.114 95.3197C246.353 92.0805 248.399 88.1593 250.445 84.2381C251.468 82.1923 252.661 79.9759 253.514 77.7596C254.537 75.3728 255.389 73.1565 256.242 70.7697C257.264 68.2124 258.287 65.6551 258.969 62.9273C259.651 60.1995 260.333 57.4717 261.186 54.7439C261.527 53.38 262.038 52.1866 262.55 50.8228C262.72 50.3113 262.891 49.9703 263.232 49.4589L263.402 49.2884C263.402 49.2884 263.572 49.2884 263.572 49.1179C263.572 49.1179 263.572 49.1179 263.402 49.1179C264.595 48.9474 263.572 47.413 262.55 47.5835Z" fill="#efcec9"/>
<path d="M130.081 64.1189C128.717 78.9513 129.74 93.7836 128.547 108.445C128.035 115.776 126.33 123.107 125.989 130.438C125.478 137.599 125.648 144.759 124.967 151.749C124.285 158.739 122.58 165.899 119 172.037C115.76 177.492 111.157 181.925 106.043 185.505C101.098 189.085 95.4724 191.984 90.5283 195.564C87.4595 197.78 84.3908 199.997 80.8105 201.02C77.5713 201.872 74.1616 201.36 70.7519 201.02C65.4668 200.338 59.8407 200.167 55.2376 203.406C52.3393 205.452 49.782 208.521 47.2247 210.908C44.4969 213.465 41.9397 216.363 39.0414 218.58C36.6546 220.455 33.9268 221.989 31.54 223.694C28.9827 225.57 26.4254 227.445 24.0386 229.661C19.4354 233.753 15.1733 238.527 11.934 243.641C8.52432 249.097 6.81946 255.575 5.45556 261.883C3.92119 269.214 3.58021 276.375 3.40973 283.876C3.06875 299.39 3.06875 314.904 2.89827 330.419C2.72778 346.103 2.38681 361.618 1.36389 377.302C1.02292 381.224 0.681946 385.315 0.340973 389.237C0 392.817 0.170486 396.567 0.170486 400.148C0.170486 407.82 0 415.491 0 423.334C0 439.019 0.170486 454.533 1.53438 470.047C2.21632 477.208 2.72778 484.368 3.7507 491.528C4.43265 496.813 5.45556 502.269 8.18335 507.213C10.9111 512.328 15.5143 516.249 20.9698 517.954C26.4254 519.659 32.3924 519.488 38.0185 518.806C45.3494 518.124 52.6803 517.442 60.0112 517.442C63.7619 517.442 67.3421 517.442 71.0928 517.101C74.8435 516.76 78.2533 516.078 81.8335 515.396C111.157 509.77 141.163 509.429 170.145 501.758C184.466 498.007 198.276 492.381 212.085 486.925C225.894 481.299 239.533 475.503 253.172 469.365C259.821 466.296 266.47 463.228 273.119 459.988C279.939 456.749 287.099 453.68 293.748 449.93C299.204 446.861 303.807 442.428 309.262 439.189C311.138 438.166 313.524 436.802 315.059 436.291C315.911 436.12 316.593 435.95 317.446 435.438C320.514 433.563 320.685 429.301 320.685 426.062C320.685 425.38 318.639 425.721 318.639 426.573C318.81 429.301 318.639 434.245 315.4 435.097C315.059 435.268 315.741 434.927 315.4 435.097C315.059 435.268 314.718 435.268 314.377 435.268C313.013 435.779 311.479 436.461 310.115 437.143C307.557 438.507 305.171 440.041 302.954 441.746C300.397 443.622 298.01 445.497 295.282 447.372C292.384 449.418 289.145 450.782 285.906 452.487C279.257 455.726 272.608 458.965 265.959 462.205C239.363 474.821 212.085 486.755 184.296 496.472C170.145 501.417 155.484 504.485 140.651 506.531C126.33 508.577 112.01 509.429 97.8592 511.646C90.8692 512.669 83.8793 514.033 76.7189 515.396C69.047 516.931 61.0341 516.249 53.1918 516.419C40.7462 516.76 25.573 522.045 15.0028 512.839C5.96702 504.997 5.45556 491.528 4.43265 480.447C3.7507 472.775 2.89827 465.273 2.5573 457.602C2.21632 450.1 2.04584 442.428 1.87535 434.927C1.87535 427.425 1.87535 419.924 1.87535 412.252C1.87535 404.41 1.36389 396.567 2.21632 388.725C3.58021 373.893 4.43265 359.231 4.77362 344.399C5.11459 329.225 4.94411 313.882 5.11459 298.708C5.28508 283.876 4.94411 268.703 9.37675 254.382C11.2521 248.244 14.1504 242.789 18.4125 237.845C22.5042 232.9 27.2778 228.638 32.5629 225.058C35.1202 223.183 37.6775 221.648 40.2348 219.773C42.9626 217.898 45.3494 215.17 47.7362 212.783C50.464 210.226 53.0213 207.668 55.7491 205.111C58.6473 202.383 62.2275 201.701 66.1487 201.872C71.7748 202.213 77.2303 203.577 82.6859 201.701C88.312 199.656 93.0856 195.393 98.2002 192.325C108.088 186.358 117.977 179.709 122.921 168.798C128.717 156.011 127.353 141.861 128.376 128.222C128.888 120.891 130.422 113.73 130.934 106.57C131.445 99.5801 131.445 92.5902 131.615 85.6002C131.615 78.2693 131.786 71.1089 132.468 63.778C132.127 63.096 130.081 63.437 130.081 64.1189Z" fill="#efcec9"/>
<path d="M231.521 107.934C227.77 115.606 219.416 119.016 212.597 123.449C211.744 123.96 210.892 124.642 210.039 125.324C209.528 125.665 209.187 126.177 208.675 126.347C207.994 126.517 207.312 126.688 206.63 126.688C204.072 127.199 201.515 127.37 198.787 127.54C193.502 127.881 188.047 127.54 182.932 126.688C181.568 126.517 180.204 126.177 179.011 125.836C177.988 125.495 177.135 124.983 176.113 124.642C175.09 124.131 173.896 123.79 172.703 123.278C171.68 122.767 170.657 122.255 169.805 121.573C166.054 119.357 162.644 116.629 159.405 113.561C152.926 107.423 147.812 100.263 143.72 92.4202C139.628 84.5778 136.56 76.224 134.343 67.6997C134.002 66.6768 133.832 65.6538 133.491 64.4604C133.491 64.1195 132.809 63.7785 132.468 63.608C132.468 63.608 131.616 63.0965 131.786 63.4375C134.002 72.3028 136.901 80.9976 140.822 89.181C144.743 97.1938 149.858 104.866 156.166 111.344C159.405 114.583 162.985 117.652 166.736 120.209C168.611 121.573 170.657 122.767 172.703 123.96C173.214 124.301 173.726 124.472 174.237 124.813C174.919 125.154 175.601 125.324 176.113 125.495C177.135 125.836 178.158 126.517 179.181 126.858C180.375 127.37 181.909 127.54 183.102 127.881C184.466 128.222 185.66 128.393 187.024 128.563C189.751 128.904 192.479 129.075 195.207 129.245C197.935 129.245 200.663 129.075 203.39 128.904C204.754 128.734 206.118 128.563 207.312 128.393C207.994 128.222 208.675 128.222 209.357 128.052C209.698 128.052 209.869 127.881 210.21 127.881C210.551 127.881 210.721 127.711 211.062 127.37C217.711 122.085 226.577 119.357 231.691 112.367C232.373 111.515 232.885 110.662 233.396 109.639C233.396 108.787 231.521 107.764 231.521 107.934Z" fill="#efcec9"/>
<path d="M72.6272 293.935C70.5813 299.22 70.5813 304.846 71.9452 310.131C73.3091 315.757 74.8435 321.213 76.0369 326.839C76.7188 329.908 77.0598 332.806 77.0598 336.045C77.0598 339.114 76.7188 342.183 76.7188 345.251C76.7188 351.389 76.7188 357.526 76.8893 363.664C77.0598 375.939 77.5713 388.214 78.4237 400.489C78.9352 406.626 79.6171 412.764 79.7876 418.902C79.9581 425.039 79.7876 431.177 79.6171 437.314C79.6171 439.019 79.6171 440.724 79.4466 442.429C79.4466 443.793 79.6171 445.497 79.2761 446.861C78.7647 449.078 76.5484 450.442 74.332 450.271C71.4338 450.101 68.706 450.271 65.8077 450.612C64.2733 450.782 62.5685 451.123 61.0341 450.782C59.8407 450.612 58.9883 450.101 57.7949 450.271C58.1358 450.442 58.4768 450.441 58.8178 450.612C59.4997 449.76 60.3521 449.078 61.0341 448.225L61.2046 448.055C61.5456 447.714 60.0112 447.714 59.6702 448.055C59.6702 448.225 59.6702 448.396 59.6702 448.396C59.4997 448.737 59.3292 449.248 58.9883 449.589C58.8178 449.76 58.6473 449.93 58.4768 450.101L58.1358 450.271C57.9653 450.612 58.8178 450.271 58.4768 450.271C58.6473 450.442 58.6473 450.441 58.8178 450.612C60.1817 448.907 61.8865 447.202 64.2733 446.691C65.2963 446.52 66.4897 446.35 67.5126 446.35C68.8765 446.179 70.2404 446.009 71.6043 445.838C76.8893 445.327 82.3449 444.986 87.8005 444.986C98.3706 444.986 108.941 446.009 119.34 447.373C129.57 448.737 139.969 448.396 150.369 447.543C155.654 447.032 160.939 446.52 166.395 446.009C171.509 445.497 176.624 444.133 181.738 443.281C184.296 442.94 186.853 442.599 189.581 442.429C191.968 442.258 194.013 442.258 196.23 441.406C197.253 441.065 198.276 440.553 199.299 440.383C200.492 440.042 202.026 440.383 203.39 440.383C205.777 440.383 208.164 440.383 210.721 440.212C220.268 439.36 229.475 436.803 238.51 433.734C243.114 432.199 247.717 430.495 252.49 428.96C253.002 428.79 253.513 428.619 254.025 428.449C254.366 428.278 254.877 428.278 255.218 428.108C255.559 427.937 255.559 427.426 255.73 427.085C256.071 426.744 256.412 426.573 256.752 426.403C258.287 426.062 259.821 426.062 261.185 425.039C264.765 422.141 268.687 420.095 272.608 417.879C274.654 416.685 276.529 415.492 278.234 414.128C278.575 413.787 278.916 413.616 279.257 413.275C279.598 412.934 279.768 412.423 280.28 412.082C281.132 411.23 282.155 410.548 283.007 409.695C285.565 406.627 286.929 402.023 286.588 398.102C286.417 395.545 285.906 392.988 285.735 390.26C285.565 387.702 285.565 385.316 285.565 382.758C285.565 380.201 285.565 377.644 285.735 374.916C285.735 372.529 285.565 370.313 285.906 367.926C286.417 363.834 288.463 359.913 290.168 356.163C291.191 353.946 292.214 351.9 293.066 349.684C293.237 349.343 291.191 349.173 291.02 349.684C288.804 355.31 285.224 360.766 284.03 366.903C283.348 369.972 283.689 373.211 283.519 376.28C283.519 380.031 283.348 383.611 283.519 387.362C283.519 389.066 283.689 390.942 283.86 392.647C284.03 394.522 284.371 396.397 284.542 398.273C284.883 401.341 284.03 404.41 282.666 406.967C281.814 408.502 280.962 409.695 279.768 410.889C278.575 411.912 277.552 413.275 276.358 414.298C273.972 416.174 271.073 417.708 268.346 419.242C266.811 420.095 265.106 420.947 263.572 421.97C262.72 422.482 262.038 422.993 261.356 423.505C260.674 424.016 259.992 424.698 259.139 425.21C258.116 425.891 256.582 425.721 255.389 426.062C254.195 426.403 253.684 427.085 253.343 428.108C253.513 427.937 253.684 427.937 253.854 427.767C241.75 431.688 229.816 436.632 217.37 438.848C214.131 439.36 210.892 439.701 207.482 439.871C204.584 439.871 201.515 439.36 198.787 440.042C197.423 440.383 196.23 440.894 194.866 441.406C193.161 442.088 191.286 441.917 189.41 442.088C186.171 442.258 182.932 442.77 179.693 443.281C176.453 443.793 173.214 444.474 169.975 445.156C166.395 445.838 162.814 446.009 159.234 446.35C152.415 447.032 145.595 447.714 138.605 448.055C135.025 448.225 131.445 448.225 127.865 447.884C124.455 447.714 120.875 447.202 117.465 446.691C110.816 445.838 103.997 445.156 97.3477 444.815C89.6758 444.474 82.1744 444.474 74.5025 445.156C72.6272 445.327 70.7518 445.497 69.047 445.668C67.3421 445.838 65.6372 446.009 63.9324 446.35C61.0341 446.861 58.6473 448.566 56.9424 450.953C56.7719 451.123 57.1129 451.294 57.2834 451.294C58.9883 451.805 61.8865 450.612 62.2275 448.566C62.398 447.543 61.0341 447.714 60.3521 447.884C58.9883 448.225 57.7949 449.76 56.9424 450.953C56.6014 451.294 57.9653 451.294 57.9653 451.294C58.6473 451.294 59.6702 451.805 60.3521 451.805C61.8865 451.976 63.4209 451.805 64.7848 451.635C67.5126 451.464 70.2404 450.953 72.9681 451.294C76.2074 451.635 80.8105 450.612 81.4925 446.861C81.663 445.497 81.6629 444.134 81.6629 442.77C81.6629 441.235 81.6629 439.53 81.6629 437.996C81.6629 434.757 81.8334 431.518 81.8334 428.278C81.8334 421.97 81.6629 415.662 81.1515 409.354C80.1286 396.738 79.4466 384.293 79.1057 371.677C78.9352 365.369 78.7647 359.061 78.7647 352.753C78.7647 349.514 78.5942 346.274 78.7647 343.035C78.9352 339.966 79.1057 336.898 79.1057 333.829C78.9352 330.249 78.0827 327.009 77.2303 323.6C76.5484 320.36 75.6959 317.121 74.8435 313.882C73.9911 310.643 73.1386 307.574 72.9681 304.164C72.7977 300.754 73.3091 297.515 74.5025 294.276C74.8435 293.424 72.7977 293.424 72.6272 293.935Z" fill="#efcec9"/>
<path d="M87.6301 206.477C90.3579 206.648 92.7447 207.671 95.302 208.353C97.8593 209.205 100.417 209.887 102.974 210.399C105.702 211.081 108.259 211.251 110.987 211.251C113.715 211.251 116.442 210.74 119.341 210.74C122.239 210.569 124.967 210.91 127.694 211.251C129.058 211.422 130.593 211.592 131.957 211.592C133.32 211.592 134.855 211.592 136.219 211.763C138.776 212.103 141.333 212.956 143.891 213.467C146.448 213.979 149.176 214.149 151.733 214.661C154.631 215.172 157.018 216.366 159.234 218.241C160.257 219.093 161.28 220.116 162.303 221.139C163.156 221.992 164.179 222.844 165.372 223.015C165.883 223.185 166.395 223.015 166.906 222.844C167.077 222.844 167.588 222.503 167.247 222.503C166.054 222.333 165.201 221.48 164.349 220.628C163.497 219.775 162.644 218.923 161.621 218.071C159.746 216.366 157.7 215.172 155.313 214.49C152.756 213.808 150.028 213.638 147.471 213.126C144.743 212.785 142.186 211.763 139.628 211.422C136.901 210.91 134.343 211.081 131.616 210.74C128.717 210.569 125.99 210.058 123.091 210.058C120.364 209.887 117.465 210.228 114.737 210.399C111.839 210.569 109.111 210.569 106.384 210.058C103.315 209.546 100.417 208.694 97.3479 207.671C94.6201 206.818 91.8923 205.795 88.994 205.625C88.4826 205.625 87.9711 205.625 87.4596 205.966C87.2892 206.307 87.2892 206.477 87.6301 206.477Z" fill="#efcec9"/>
<path d="M80.4694 327.353C80.1284 326.841 79.9579 326.33 79.617 325.818C79.617 325.648 79.4465 325.648 79.4465 325.477C79.276 325.136 79.4465 325.477 79.4465 325.648C79.1055 325.818 78.935 325.989 78.594 326.159C78.4236 325.989 78.0826 325.989 77.9121 325.818C77.7416 325.818 77.5711 325.477 77.7416 325.648C77.7416 325.818 77.9121 325.818 77.9121 325.989C78.0826 326.33 78.4236 326.671 78.594 327.012C79.276 328.035 79.9579 329.228 80.6399 330.251C82.0038 332.638 83.5381 335.025 84.3906 337.752C84.7316 338.946 85.0725 340.31 85.4135 341.503C85.7545 342.697 86.4364 343.89 86.7774 345.254C87.4593 347.47 87.9708 349.857 88.1413 352.073C88.6527 357.358 88.3118 362.643 87.2889 367.929C86.7774 370.486 86.2659 373.214 85.584 375.771C84.902 378.158 84.0496 380.545 83.1972 382.931C82.5152 385.318 81.6628 387.705 81.4923 390.262C81.3218 391.626 81.6628 393.161 81.4923 394.524C81.3218 395.718 80.8104 396.911 80.6399 398.105C80.4694 399.298 80.2989 400.321 80.1284 401.514C79.9579 402.537 79.7874 403.39 79.9579 404.413C80.1284 405.606 80.8104 406.629 81.3218 407.822C81.8333 409.016 82.5152 410.209 83.0267 411.573C85.243 416.347 87.1184 421.291 89.6757 425.894C90.8691 428.281 92.233 430.497 93.7673 432.543C94.4493 433.566 95.1312 434.589 95.9837 435.441C96.8361 436.123 97.859 436.805 98.5409 437.658C99.3934 438.51 99.7344 439.703 100.416 440.556C100.928 441.238 101.439 441.749 102.121 442.261C103.485 443.284 104.849 444.306 106.554 445.159C107.236 445.5 107.918 445.67 108.77 445.67C109.282 445.67 109.452 445.159 109.282 444.818C109.111 444.306 108.429 444.136 107.918 444.136C108.088 444.136 107.747 444.136 107.747 444.136C107.577 444.136 107.406 443.965 107.236 443.965C106.895 443.795 106.554 443.625 106.213 443.454C105.531 443.113 104.678 442.602 103.997 442.09C103.656 441.92 103.315 441.579 102.974 441.408C102.803 441.238 102.803 441.238 102.633 441.067C102.633 441.067 102.292 440.726 102.462 440.897C101.61 440.044 101.269 439.021 100.587 438.169C99.9048 437.146 99.0524 436.464 98.2 435.612C97.1771 434.93 96.4951 434.248 95.8132 433.225C94.2788 431.179 93.0854 428.963 91.7215 426.746C89.1642 422.143 87.1184 417.37 85.0725 412.596C84.5611 411.403 84.0496 410.209 83.3677 408.845C82.8562 407.652 82.1743 406.629 81.8333 405.436C81.6628 404.413 81.6628 403.56 81.8333 402.537C82.0038 401.344 82.1743 400.321 82.3447 399.128C82.5152 397.934 83.0267 396.741 83.1972 395.547C83.3677 394.183 83.1972 392.82 83.1972 391.456C83.3677 388.898 84.0496 386.341 84.902 383.954C85.584 381.567 86.6069 379.181 87.2889 376.794C87.9708 374.237 88.4823 371.679 88.9937 369.122C89.5052 366.394 90.0166 363.666 90.1871 360.939C90.3576 358.381 90.3576 355.824 90.0166 353.437C89.8461 351.05 89.5052 348.834 88.8232 346.618C88.4823 345.424 87.9708 344.231 87.6298 343.038C87.1184 341.844 86.7774 340.48 86.4364 339.116C85.925 337.411 85.4135 335.707 84.5611 334.172C84.0496 333.149 83.3677 331.956 82.6857 330.933C81.6628 329.058 80.6399 327.182 79.4465 325.477C79.1055 324.966 78.7645 324.795 78.2531 324.625C77.9121 324.625 77.5711 324.625 77.4006 325.136C77.4006 325.307 77.5711 325.818 77.7416 325.989C78.0826 326.5 78.4236 327.012 78.594 327.523C78.7645 328.035 79.4465 328.376 79.9579 328.205C80.4694 328.205 80.6399 327.864 80.4694 327.353Z" fill="#efcec9"/>
<path d="M87.9716 205.627C88.3125 205.627 89.165 205.627 89.3355 205.286C89.6764 204.945 89.165 204.945 88.824 204.945C88.483 204.945 87.6306 204.945 87.4601 205.286C87.1191 205.457 87.6306 205.627 87.9716 205.627Z" fill="#efcec9"/>
<path d="M233.736 109.131C233.565 110.154 233.224 110.666 232.201 111.177C231.008 111.688 230.155 112.37 229.132 113.223C227.087 114.928 224.7 116.121 222.824 117.826C220.608 119.701 218.903 121.747 217.369 124.134C216.516 125.327 215.835 126.691 215.153 127.885C214.471 129.078 213.789 130.442 213.277 131.806C212.766 133.34 212.595 134.875 212.084 136.409C211.572 137.773 210.89 139.137 211.061 140.842C211.231 141.694 213.277 141.524 213.107 140.501C212.936 139.137 213.618 137.943 214.13 136.579C214.641 135.216 214.812 133.852 215.153 132.488C215.494 131.124 216.346 129.76 217.028 128.396C217.71 127.032 218.392 125.839 219.244 124.645C220.779 122.259 222.483 120.213 224.529 118.337C226.575 116.633 228.791 115.439 230.837 113.734C231.349 113.223 231.86 112.711 232.542 112.37C233.054 112.2 233.395 112.029 233.906 111.688C234.929 111.177 235.611 110.325 235.781 108.961C235.952 108.279 233.736 108.279 233.736 109.131Z" fill="#efcec9"/>
<path d="M320.344 432.714C318.98 434.249 317.276 435.613 316.082 437.147C314.718 438.681 313.695 440.557 313.184 442.603C312.331 445.501 311.82 448.57 311.138 451.468C310.456 454.537 309.774 457.605 309.263 460.504C308.24 466.471 308.41 472.608 308.41 478.575C308.41 485.054 308.41 491.532 308.41 498.011C308.41 501.591 308.069 505.001 308.41 508.581C308.751 511.99 310.115 515.23 309.774 518.639C309.604 519.662 311.82 519.492 311.82 518.639C312.161 515.741 311.138 512.843 310.627 509.945C310.115 506.876 310.286 503.637 310.286 500.568C310.456 494.089 310.286 487.781 310.286 481.303C310.286 475.336 310.115 469.198 310.627 463.231C310.968 460.163 311.65 457.264 312.331 454.366C313.013 451.297 313.525 448.229 314.207 445.16C314.718 442.603 315.571 440.216 317.105 438.17C318.469 436.295 320.344 434.931 321.879 433.226C322.902 432.373 321.026 432.032 320.344 432.714Z" fill="#efcec9"/>
<path d="M135.536 24.2297C133.831 20.479 129.398 18.4331 125.307 18.6036C123.431 18.7741 121.556 19.2856 120.363 20.8199C119.51 21.8429 118.828 23.2067 118.317 24.4002C117.635 25.764 117.294 27.1279 116.782 28.4918C115.419 34.1179 116.101 39.9144 117.464 45.37C118.146 48.2682 118.999 50.996 119.681 53.8943C120.022 55.2582 120.363 56.6221 120.704 57.986C121.045 59.3499 121.556 60.7138 121.215 62.0776C120.874 63.2711 120.363 64.4645 120.363 65.8283C120.363 67.1922 121.215 68.3856 122.238 69.2381C123.261 70.0905 124.454 70.4315 125.818 70.0905C127.012 69.92 128.205 68.8971 129.058 68.0447C129.91 67.1922 130.421 66.1693 130.762 65.1464C131.103 63.7825 131.103 62.5891 131.103 61.2252C131.103 57.8155 131.444 54.4058 131.444 50.996C131.615 47.5863 131.444 44.1766 130.933 40.7668C130.762 39.2325 130.592 37.3571 129.739 36.1637C129.228 35.1408 128.205 34.4588 127.012 34.1179C125.818 33.7769 124.625 33.9474 123.602 34.4589C122.409 34.9703 121.556 36.3342 120.704 37.3571C119.169 39.5734 117.976 42.1307 117.294 44.688C116.101 49.8026 116.953 55.0877 118.828 60.0318C120.533 64.6349 123.261 68.7266 127.182 71.7954C128.205 72.6478 129.228 73.3297 130.251 74.0117C130.762 74.3527 131.274 74.1822 131.444 73.6707C131.615 73.1593 131.274 72.4773 130.933 72.3068C127.182 70.0905 124.113 66.8513 122.068 63.1006C121.045 61.2252 120.363 59.1794 119.681 57.1335C118.999 54.9172 118.487 52.7009 118.487 50.3141C118.317 45.5405 120.192 40.5964 123.431 37.1866C124.113 36.3342 125.136 35.9932 126.159 36.1637C126.841 36.3342 127.694 36.6752 127.864 37.3571C128.376 38.721 128.546 40.4259 128.717 41.7898C128.887 43.3241 129.058 44.8585 129.058 46.3929C129.058 49.4617 128.887 52.5304 128.887 55.5992C128.887 57.1335 128.717 58.6679 128.717 60.2023C128.717 61.3957 128.887 62.7596 128.546 63.953C128.376 64.8054 127.864 65.6579 127.182 66.3398C126.5 67.0218 125.477 67.8742 124.454 68.0447C123.431 68.2152 122.75 67.5332 122.238 66.6808C121.727 65.8283 122.238 64.6349 122.409 63.612C122.579 63.1006 122.75 62.4186 122.75 61.9072C122.75 61.2252 122.75 60.7138 122.579 60.0318C122.409 58.8384 122.068 57.645 121.727 56.2811C121.045 53.7238 120.363 51.337 119.681 48.7797C118.999 44.3471 117.805 39.2325 117.976 34.1179C118.146 31.5606 118.658 29.0033 119.51 26.6165C120.022 25.2526 120.704 24.0592 121.386 23.0363C121.897 22.3543 122.409 21.8429 123.091 21.5019C125.989 19.9675 130.08 21.1609 132.297 23.2067C132.808 23.7182 133.32 24.2297 133.661 24.9116C133.831 25.4231 134.343 25.764 134.854 25.5936C135.536 25.4231 135.706 24.7411 135.536 24.2297Z" fill="#efcec9"/>
<path d="M213.96 87.6516C213.107 88.163 212.084 88.504 211.062 88.6745C209.868 88.845 208.675 87.9926 207.481 87.6516C204.924 86.7992 202.196 86.9696 199.639 87.3106C197.082 87.6516 194.695 88.504 191.967 88.6745C190.944 88.6745 189.921 88.6745 188.728 88.6745C188.216 88.6745 187.705 88.6745 187.193 88.845C187.023 88.845 186.682 88.845 186.511 89.0155C186.341 89.0155 186.511 89.0155 186.682 89.0155C186.341 88.845 186 88.6745 185.659 88.504C185.318 88.3335 184.807 87.9926 184.466 87.8221C183.784 87.4811 182.931 86.9696 182.079 87.1401C181.567 87.1401 181.226 87.8221 181.397 88.3335C181.567 89.0155 182.249 89.5269 182.761 89.8679C183.443 90.3794 184.295 90.8908 185.148 91.4023C185.83 91.7433 186.511 92.0842 187.023 92.4252C188.216 92.9367 189.41 92.7662 190.603 92.7662C191.967 92.7662 193.331 92.5957 194.524 92.7662C195.206 92.9367 195.718 92.9367 196.4 92.9367C197.082 92.9367 197.764 93.1071 198.446 93.1071C199.127 93.1071 199.809 93.2776 200.321 93.2776C201.003 93.4481 201.685 93.2776 202.367 93.2776C203.049 93.2776 203.731 93.4481 204.413 93.6186C205.094 93.7891 205.776 93.9596 206.458 93.9596C207.993 94.1301 209.357 94.9825 211.062 94.471C211.402 94.3006 211.743 94.1301 212.084 94.1301C212.425 93.9596 212.766 93.9596 213.107 93.9596C213.789 93.7891 214.301 93.4481 214.983 93.4481C215.494 93.4481 216.006 92.9367 216.006 92.4252C216.006 91.9137 215.324 91.5728 214.812 91.4023C214.301 91.4023 213.619 91.5728 213.107 91.7433C212.596 91.9137 212.084 92.0842 211.402 92.0842C210.721 92.2547 210.209 92.5957 209.698 92.5957C209.016 92.5957 208.504 92.4252 207.822 92.2547C207.14 92.0842 206.629 92.0842 205.947 91.9137C205.265 91.7433 204.583 91.5728 204.072 91.4023C203.39 91.2318 202.878 91.0613 202.196 91.0613C201.514 91.0613 200.832 91.0613 200.15 91.0613C199.468 90.8908 198.957 90.8908 198.275 90.8908C197.593 90.7203 196.911 90.5499 196.229 90.5499C195.036 90.5499 193.842 90.2089 192.479 90.2089C191.115 90.2089 189.921 90.3794 188.557 90.2089C188.216 90.2089 188.046 90.2089 187.705 90.2089C187.534 90.2089 187.193 90.0384 187.364 90.0384C187.534 90.0384 187.193 90.0384 187.193 89.8679C187.023 89.8679 186.852 89.6974 186.682 89.5269C185.83 89.186 184.977 88.6745 184.295 88.163C183.954 87.9926 183.613 87.6516 183.272 87.4811C183.102 87.3106 182.931 87.3106 182.931 87.1401C182.761 86.9696 182.931 87.3106 182.931 87.1401C182.761 87.4811 182.59 87.9926 182.249 88.3335C182.079 88.3335 182.079 88.3335 181.908 88.3335C182.079 88.3335 182.249 88.504 182.249 88.504C182.59 88.6745 183.102 88.845 183.443 89.186C184.125 89.5269 184.807 90.0384 185.489 90.2089C186.171 90.3794 187.193 90.2089 188.046 90.0384C189.069 90.0384 190.262 90.0384 191.285 90.0384C196.4 89.6974 201.514 87.1401 206.629 89.0155C207.993 89.5269 209.186 90.2089 210.721 90.0384C211.914 89.8679 213.278 89.5269 214.301 88.845C216.176 88.504 214.983 86.9696 213.96 87.6516Z" fill="#efcec9"/>
<path d="M187.023 92.5969C187.875 93.1084 188.557 94.1313 188.898 94.9837C189.41 96.0067 190.092 97.0296 190.774 97.882C191.626 98.7344 192.478 99.5869 193.501 100.098C194.695 100.61 196.059 100.78 197.423 101.121C200.15 101.633 202.878 101.633 205.606 101.803C208.163 101.803 210.891 102.144 213.278 101.292C214.471 100.951 215.835 100.439 216.858 99.7574C218.051 98.9049 218.904 97.882 219.756 96.6886C220.438 95.8362 219.074 94.3018 218.222 95.1542C217.369 96.0066 216.858 97.0296 215.835 97.7115C214.983 98.3935 213.96 98.7344 212.937 99.0754C210.721 100.098 208.163 99.7574 205.776 99.7574C203.219 99.7574 200.491 99.7574 197.934 99.2459C196.741 99.0754 195.377 98.7344 194.183 98.3935C192.99 98.0525 192.478 97.3705 191.626 96.5181C190.774 95.6657 190.433 94.4723 189.751 93.4494C189.069 92.4264 188.216 91.4035 187.023 90.8921C186.682 90.7216 186 90.8921 186 91.4035C186.17 91.915 186.682 92.4264 187.023 92.5969Z" fill="#efcec9"/>
<path d="M352.054 322.58C352.054 322.921 352.225 323.092 352.225 323.433C352.225 323.774 352.565 323.944 352.906 323.944C355.634 324.626 358.192 325.82 361.09 326.161C363.818 326.331 366.375 325.99 369.103 326.331C371.66 326.502 374.217 327.013 376.604 327.695C378.82 328.377 381.037 329.229 383.083 330.252C384.617 330.934 386.151 331.616 387.345 332.639C388.197 333.321 389.391 334.855 388.368 335.878C387.686 336.731 385.981 336.731 384.787 336.731C383.424 336.731 381.889 336.56 380.525 336.56C377.456 336.39 374.388 336.56 371.319 336.56C368.25 336.56 365.181 335.367 362.113 335.537C361.09 335.537 360.408 336.731 361.601 337.072C365.693 338.095 369.785 338.947 373.876 339.118C375.752 339.118 377.797 338.947 379.673 338.947C381.378 338.947 383.253 338.947 384.958 339.629C387.004 340.481 389.05 342.357 390.072 344.403C390.584 345.085 391.095 346.107 390.754 347.13C390.413 348.324 388.879 348.494 387.856 348.665C385.81 348.835 383.764 348.324 381.889 347.812C379.843 347.301 377.968 346.619 375.752 346.619C375.24 346.619 374.217 347.301 374.729 347.812C376.093 349.517 377.968 350.881 379.673 351.904C381.378 353.097 383.253 353.95 384.958 355.143C386.663 356.507 388.197 358.212 388.879 360.428C389.561 362.645 389.22 364.691 388.197 366.736C387.686 367.759 389.732 367.93 390.243 367.077C391.266 365.031 391.607 362.645 391.095 360.428C390.584 358.042 389.05 356.337 387.345 354.632C385.81 353.097 383.935 352.074 382.06 351.052C380.014 349.858 378.138 348.494 376.604 346.789C376.263 347.13 375.922 347.642 375.581 347.983C379.502 348.153 383.253 350.37 387.345 350.029C390.072 349.858 393.823 348.494 392.8 345.085C392.118 342.698 389.902 340.481 387.856 339.118C384.617 336.901 380.696 337.242 377.116 337.413C372.001 337.583 367.227 336.56 362.283 335.367C362.113 335.878 361.942 336.39 361.772 336.901C364.67 336.731 367.568 337.754 370.467 337.924C373.535 338.095 376.604 337.924 379.673 337.924C382.571 337.924 386.492 338.777 389.22 337.072C390.584 336.219 391.095 334.514 390.413 333.151C389.561 331.446 387.686 330.593 386.151 329.741C384.276 328.888 382.571 328.036 380.696 327.183C378.138 326.161 375.411 325.479 372.853 325.138C369.785 324.626 366.716 324.456 363.477 324.626C361.772 324.626 360.067 324.456 358.533 323.944C356.828 323.433 355.293 322.921 353.588 322.58C353.759 322.751 354.1 322.921 354.27 323.092C354.27 322.751 354.1 322.58 354.1 322.239C353.929 321.216 351.884 321.728 352.054 322.58Z" fill="#efcec9"/>
<path d="M279.427 33.7783C279.938 47.2467 281.643 60.7151 285.394 73.8426C288.122 83.2193 291.872 92.2551 296.305 100.779C300.056 107.769 304.147 114.589 307.557 121.749C310.967 128.739 313.524 136.411 314.376 144.253C315.058 151.584 312.672 159.086 307.387 164.2C302.442 168.974 295.793 171.872 289.315 173.577C287.781 174.089 286.076 174.43 284.371 174.6C283.859 174.771 283.348 174.941 283.348 175.623C283.348 176.134 284.03 176.475 284.541 176.475C291.531 175.111 298.351 173.066 304.318 169.144C307.216 167.269 310.114 164.712 312.16 161.814C314.376 158.745 315.74 155.165 316.422 151.414C317.275 146.129 316.422 140.673 315.058 135.559C314.035 131.808 312.842 128.057 311.308 124.477C308.239 117.317 304.147 110.497 300.397 103.507C295.964 95.1534 291.872 86.629 288.974 77.5933C284.882 65.1478 282.836 52.3613 281.984 39.2338C281.814 37.3585 281.814 35.3126 281.643 33.4373C281.473 32.4144 279.427 32.5849 279.427 33.7783Z" fill="#efcec9"/>
<path d="M100.928 0.700974C95.1312 11.4416 94.6198 23.8871 94.1083 35.8212C93.9378 42.6406 93.5969 49.4601 93.5969 56.2795C93.5969 63.6105 93.9378 70.9414 93.9378 78.2723C94.1083 85.6032 93.9378 92.9341 93.4264 100.095C92.9149 107.255 92.233 114.586 91.2101 121.746C89.3347 136.238 86.7774 150.388 83.7086 164.709C82.8562 168.289 82.1743 171.869 81.3218 175.279C80.4694 178.518 79.276 181.587 78.0826 184.656C77.0597 187.384 76.0368 190.282 75.0138 193.01C74.3319 195.055 73.65 197.101 72.4565 198.977C72.1156 199.488 71.6041 200.511 70.9222 200.682C70.5812 200.852 69.8992 201.193 69.7288 201.534C69.7288 202.045 70.0697 202.045 70.4107 202.045C72.4565 201.534 73.8204 199.659 74.6729 197.954C75.6958 196.078 76.3777 194.033 77.0597 191.987C79.1055 185.679 82.0038 179.712 83.5382 173.233C86.9479 158.912 89.8462 144.592 91.892 130.1C94.1083 115.438 95.6427 100.776 95.8132 85.9442C95.9837 71.1119 94.9607 56.1091 95.6427 41.2767C96.1542 29.0017 95.8132 16.2152 100.416 4.62216C100.928 3.25827 101.61 1.89438 102.292 0.530487C103.144 -0.492431 101.098 0.189514 100.928 0.700974Z" fill="#efcec9"/>
<path d="M282.495 33.0886C283.688 37.5212 284.882 41.9539 285.905 46.3865C286.928 50.9897 287.439 55.5928 287.95 60.1959C289.144 69.2317 290.678 78.097 293.236 86.7918C295.622 95.3161 298.862 103.499 302.271 111.683C303.976 115.775 305.852 119.696 307.727 123.787C309.602 127.538 311.478 131.459 312.841 135.38C314.205 139.302 315.399 143.393 316.251 147.314C316.763 149.531 317.104 151.577 317.104 153.793C317.274 156.009 317.104 158.226 317.104 160.442C317.104 161.465 317.104 162.658 317.104 163.681C317.615 164.363 318.127 165.216 318.638 165.898C318.638 165.557 318.638 165.386 318.638 165.045C318.638 164.534 318.127 163.852 317.956 163.511C317.956 163.34 317.104 162.488 317.104 162.829C317.104 163.17 317.104 163.34 317.104 163.681C317.104 164.193 317.615 164.875 317.786 165.216C317.786 165.386 318.638 166.238 318.638 165.898C318.638 161.465 319.149 157.032 318.468 152.6C317.786 148.508 316.763 144.416 315.569 140.325C313.012 131.971 308.75 124.469 305.34 116.456C301.76 108.444 298.521 100.26 295.793 91.9064C293.065 83.2116 291.19 74.3463 289.826 65.3105C289.144 60.7074 288.803 56.1043 287.95 51.5011C287.098 46.898 285.905 42.4653 284.711 38.0327C284.37 36.8393 284.2 35.8164 283.859 34.623C283.688 33.941 283.347 33.4296 282.836 32.9181C283.006 33.2591 282.324 32.5771 282.495 33.0886Z" fill="#efcec9"/>
</svg>