<svg width="53" height="49" viewBox="0 0 53 49" fill="none" xmlns="http://www.w3.org/2000/svg">
<path d="M31.5107 36.25V48" stroke="#DA3960" stroke-width="1.7" stroke-miterlimit="10" stroke-linecap="round" stroke-linejoin="round"/>
<path d="M26.8965 48V47.0379C26.8965 45.3097 28.2951 43.9111 30.0233 43.9111H33.0076C34.7358 43.9111 36.1344 45.3097 36.1344 47.0379V48" stroke="#DA3960" stroke-width="1.7" stroke-miterlimit="10" stroke-linecap="round" stroke-linejoin="round"/>
<path d="M23.0836 34.3258V48H1V1H23.0836V19.4668" stroke="#231F20" stroke-width="1.7" stroke-miterlimit="10" stroke-linecap="round" stroke-linejoin="round"/>
<path d="M12.6608 13.5249L7.43164 19.538" stroke="#231F20" stroke-width="1.7" stroke-miterlimit="10" stroke-linecap="round" stroke-linejoin="round"/>
<path d="M12.5895 19.4756L7.36035 25.4887" stroke="#231F20" stroke-width="1.7" stroke-miterlimit="10" stroke-linecap="round" stroke-linejoin="round"/>
<path d="M50.5923 25.4886H31.8493C31.2791 25.4886 30.8159 25.0254 30.8159 24.4553V22.7004C30.8159 22.1302 31.2791 21.667 31.8493 21.667H50.5923C50.9575 21.667 51.2604 21.9699 51.2604 22.3351V24.8205C51.2604 25.1947 50.9575 25.4886 50.5923 25.4886Z" stroke="#231F20" stroke-width="1.7" stroke-miterlimit="10" stroke-linecap="round" stroke-linejoin="round"/>
<path d="M47.7414 1H44.6948V17.4981H47.7414V1Z" stroke="#231F20" stroke-width="1.7" stroke-miterlimit="10" stroke-linecap="round" stroke-linejoin="round"/>
<path d="M47.7417 11.5742L50.2716 14.407V21.6673" stroke="#231F20" stroke-width="1.7" stroke-miterlimit="10" stroke-linecap="round" stroke-linejoin="round"/>
<path d="M46.2182 25.4888H42.646V48H46.2182V25.4888Z" stroke="#231F20" stroke-width="1.7" stroke-miterlimit="10" stroke-linecap="round" stroke-linejoin="round"/>
<path d="M38.3167 36.2496H24.7049C23.8052 36.2496 23.0747 35.5192 23.0747 34.6194V32.9447C23.0747 32.0449 23.8052 31.3145 24.7049 31.3145H38.3078C39.2076 31.3145 39.938 32.0449 39.938 32.9447V34.6194C39.938 35.5192 39.2165 36.2496 38.3167 36.2496Z" stroke="#DA3960" stroke-width="1.7" stroke-miterlimit="10" stroke-linecap="round" stroke-linejoin="round"/>
<path d="M25.7562 31.3147L21.4267 12.1174C21.3109 11.476 20.7497 11.0039 20.0905 11.0039H18.0416C17.2042 11.0039 16.5717 11.7522 16.7054 12.5718L20.7497 33.1677C20.8833 33.8447 21.4713 34.3346 22.1661 34.3346H23.0748" stroke="#DA3960" stroke-width="1.7" stroke-miterlimit="10" stroke-linecap="round" stroke-linejoin="round"/>
<path d="M40.4814 1H27.3862V11.8324H40.4814V1Z" stroke="#DA3960" stroke-width="1.7" stroke-miterlimit="10" stroke-linecap="round" stroke-linejoin="round"/>
</svg>
