<svg width="47" height="47" viewBox="0 0 47 47" fill="none" xmlns="http://www.w3.org/2000/svg">
<path d="M10.1144 40.1505C10.3682 39.8011 10.8617 39.7228 11.208 39.9782C11.5589 40.2304 11.6341 40.7255 11.3803 41.0717C11.1265 41.4211 10.6361 41.4978 10.2883 41.244C9.9374 40.9902 9.86063 40.4999 10.1144 40.1505ZM34.979 5.92825C35.2328 5.57888 35.7232 5.50212 36.071 5.75592C36.4235 6.00972 36.4987 6.50165 36.2449 6.84945C35.9911 7.19882 35.4976 7.27715 35.1513 7.02178C34.802 6.76955 34.7252 6.27605 34.979 5.92825ZM2.82317 29.2904C3.23363 29.1572 3.67857 29.3828 3.81017 29.7933C3.9449 30.2037 3.71617 30.6471 3.30727 30.7803C2.8968 30.9134 2.455 30.6878 2.32183 30.2774C2.1871 29.8653 2.4127 29.4235 2.82317 29.2904ZM43.0552 16.2197C43.4656 16.0865 43.9074 16.3121 44.0406 16.7226C44.1753 17.1346 43.9482 17.5764 43.5393 17.7096C43.1288 17.8427 42.6839 17.6171 42.5523 17.2067C42.416 16.7962 42.6447 16.3528 43.0552 16.2197ZM3.30727 16.2197C3.71617 16.3528 3.94333 16.7962 3.8086 17.2067C3.67543 17.6187 3.23207 17.8427 2.8216 17.7096C2.41113 17.5764 2.18553 17.1346 2.32027 16.7226C2.455 16.3105 2.89837 16.0865 3.30727 16.2197ZM43.5377 29.2904C43.9482 29.4235 44.1738 29.8653 44.039 30.2774C43.9059 30.6894 43.4625 30.9134 43.052 30.7803C42.6431 30.6471 42.416 30.2037 42.5507 29.7933C42.6839 29.3828 43.1272 29.1572 43.5377 29.2904ZM11.3834 5.92825C11.6357 6.27762 11.5589 6.76955 11.2095 7.02178C10.8602 7.27715 10.3682 7.19882 10.1144 6.84945C9.86063 6.50008 9.93897 6.00972 10.2883 5.75592C10.6377 5.50212 11.1296 5.58045 11.3834 5.92825ZM36.2464 40.1505C36.5002 40.4999 36.4219 40.9902 36.0725 41.244C35.7232 41.4978 35.2328 41.4195 34.979 41.0717C34.7268 40.7223 34.8035 40.2304 35.1529 39.9782C35.5007 39.7228 35.9926 39.8011 36.2464 40.1505ZM23.9638 2.34998C23.9638 2.78082 23.6113 3.13332 23.1804 3.13332C22.7496 3.13332 22.3971 2.78082 22.3971 2.34998C22.3971 1.91915 22.7496 1.56665 23.1804 1.56665C23.6113 1.56665 23.9638 1.91915 23.9638 2.34998ZM23.9638 44.65C23.9638 45.0808 23.6113 45.4333 23.1804 45.4333C22.7496 45.4333 22.3971 45.0808 22.3971 44.65C22.3971 44.2192 22.7496 43.8666 23.1804 43.8666C23.6113 43.8666 23.9638 44.2192 23.9638 44.65ZM23.1804 29.7666C19.7244 29.7666 16.9138 26.956 16.9138 23.5C16.9138 20.0439 19.7244 17.2333 23.1804 17.2333C26.6365 17.2333 29.4471 20.0439 29.4471 23.5C29.4471 26.956 26.6365 29.7666 23.1804 29.7666ZM23.1804 18.8C20.5892 18.8 18.4804 20.9087 18.4804 23.5C18.4804 26.0912 20.5892 28.2 23.1804 28.2C25.7717 28.2 27.8804 26.0912 27.8804 23.5C27.8804 20.9087 25.7717 18.8 23.1804 18.8Z" fill="#231F20"/>
<path d="M19.3625 27.4229L15.1968 33.1585C15.5978 33.4922 16.0271 33.7898 16.4705 34.0718L20.6409 28.33C20.1725 28.084 19.7385 27.7879 19.3625 27.4229ZM11.0373 38.8815C10.7835 39.2324 10.8587 39.7212 11.208 39.9766C11.559 40.2304 12.0478 40.1505 12.3031 39.8043L14.1612 37.2475C13.7241 36.9592 13.3011 36.6521 12.8938 36.3247L11.0373 38.8815ZM35.3237 8.11843C35.5775 7.7675 35.5023 7.2787 35.153 7.02333C34.802 6.76953 34.3132 6.84943 34.0579 7.19567L32.1998 9.75247C32.6369 10.0407 33.0599 10.3478 33.4672 10.6752L35.3237 8.11843ZM27 19.577L31.1658 13.8415C30.7647 13.5078 30.3355 13.2101 29.8921 12.9281L25.7216 18.6699C26.1885 18.9159 26.6225 19.212 27 19.577ZM4.31469 28.8078C3.90266 28.941 3.67706 29.3812 3.81023 29.7948C3.94496 30.2069 4.38676 30.4293 4.79879 30.2977L7.80993 29.3186C7.62663 28.8313 7.46369 28.3363 7.32583 27.8302L4.31469 28.8078ZM17.7912 24.4274L11.0545 26.6176C11.1845 27.1268 11.3428 27.6266 11.5339 28.1075L18.2847 25.9158C18.0528 25.4505 17.882 24.9554 17.7912 24.4274ZM28.5698 22.5725L35.3065 20.3823C35.1765 19.8731 35.0182 19.3734 34.8271 18.8924L28.0763 21.0842C28.3082 21.5495 28.479 22.0445 28.5698 22.5725ZM42.0463 18.1921C42.4583 18.0589 42.6839 17.6187 42.5508 17.2051C42.416 16.7931 41.9742 16.5706 41.5622 16.7022L38.5511 17.6814C38.7344 18.1686 38.8973 18.6637 39.0352 19.1697L42.0463 18.1921ZM4.79879 16.7038C4.38676 16.5706 3.94496 16.7946 3.81023 17.2051C3.67706 17.6187 3.90423 18.0589 4.31313 18.1937L7.32583 19.1728C7.46369 18.6652 7.62349 18.167 7.80993 17.6814L4.79879 16.7038ZM18.2831 21.0842L11.5323 18.8924C11.3412 19.3765 11.183 19.8747 11.0529 20.3839L17.7896 22.5725C17.882 22.0445 18.0528 21.5495 18.2831 21.0842ZM42.0479 28.8063L39.0352 27.8271C38.8973 28.3347 38.7375 28.8329 38.5511 29.3186L41.5622 30.2962C41.9742 30.4293 42.416 30.2053 42.5508 29.7948C42.6839 29.3812 42.4583 28.941 42.0479 28.8063ZM28.0779 25.9158L34.8287 28.1075C35.0198 27.6234 35.178 27.1252 35.3081 26.6161L28.5714 24.4274C28.479 24.9554 28.3082 25.4505 28.0779 25.9158ZM20.6394 18.6699L16.4673 12.9281C16.0271 13.2101 15.5963 13.5078 15.1936 13.8415L19.361 19.577C19.737 19.2136 20.1725 18.9175 20.6394 18.6699ZM12.3047 7.19723C12.0493 6.8463 11.559 6.76797 11.208 7.02177C10.8571 7.27713 10.7819 7.7675 11.0357 8.11687L12.8938 10.6737C13.3011 10.3462 13.7225 10.0392 14.1612 9.7509L12.3047 7.19723ZM34.0563 39.8027C34.3117 40.1536 34.802 40.2304 35.1514 39.9766C35.5023 39.7212 35.5775 39.2309 35.3237 38.8815L33.4657 36.3247C33.0583 36.6521 32.6369 36.9592 32.1982 37.2475L34.0563 39.8027ZM25.7216 28.33L29.8937 34.0718C30.3339 33.7898 30.7647 33.4922 31.1674 33.1585L27 27.4229C26.624 27.7864 26.1885 28.0825 25.7216 28.33ZM23.9638 7.08913V3.91663C23.9638 3.48423 23.6129 3.1333 23.1805 3.1333C22.7481 3.1333 22.3972 3.48423 22.3972 3.91663V7.08913C22.6588 7.07817 22.9157 7.04997 23.1805 7.04997C23.4453 7.04997 23.7022 7.07817 23.9638 7.08913ZM23.1805 18.0166C23.4484 18.0166 23.7053 18.0574 23.9638 18.0965V11.0058C23.7038 10.9901 23.4453 10.9666 23.1805 10.9666C22.9157 10.9666 22.6572 10.9901 22.3972 11.0058V18.095C22.6557 18.0574 22.9126 18.0166 23.1805 18.0166ZM22.3972 39.9108V43.0833C22.3972 43.5157 22.7481 43.8666 23.1805 43.8666C23.6129 43.8666 23.9638 43.5157 23.9638 43.0833V39.9108C23.7022 39.9218 23.4453 39.95 23.1805 39.95C22.9157 39.95 22.6588 39.9218 22.3972 39.9108ZM23.1805 28.9833C22.9126 28.9833 22.6557 28.9426 22.3972 28.9034V35.9926C22.6572 36.0098 22.9157 36.0333 23.1805 36.0333C23.4453 36.0333 23.7038 36.0098 23.9638 35.9941V28.905C23.7053 28.9426 23.4484 28.9833 23.1805 28.9833Z" fill="#DA3960"/>
<path d="M23.1806 40.7333C13.6788 40.7333 5.94727 33.0018 5.94727 23.5C5.94727 21.6921 6.2277 19.9108 6.7776 18.2031C6.91077 17.7911 7.3557 17.567 7.76303 17.6986C8.17507 17.8318 8.40067 18.272 8.2675 18.6841C7.76773 20.2351 7.51393 21.855 7.51393 23.5C7.51393 32.1386 14.542 39.1667 23.1806 39.1667C31.8192 39.1667 38.8473 32.1386 38.8473 23.5C38.8473 14.8614 31.8192 7.83333 23.1806 7.83333C20.8619 7.83333 18.6279 8.3284 16.5442 9.30443C16.1541 9.48773 15.6857 9.31853 15.5024 8.92687C15.3191 8.5352 15.4883 8.06833 15.8799 7.88503C18.1735 6.81187 20.6285 6.26667 23.1806 6.26667C32.6824 6.26667 40.4139 13.9982 40.4139 23.5C40.4139 33.0018 32.6824 40.7333 23.1806 40.7333ZM23.1806 36.8167C15.8376 36.8167 9.86393 30.843 9.86393 23.5C9.86393 16.157 15.8376 10.1833 23.1806 10.1833C30.5236 10.1833 36.4973 16.157 36.4973 23.5C36.4973 30.843 30.5236 36.8167 23.1806 36.8167ZM23.1806 11.75C16.7009 11.75 11.4306 17.0203 11.4306 23.5C11.4306 29.9797 16.7009 35.25 23.1806 35.25C29.6603 35.25 34.9306 29.9797 34.9306 23.5C34.9306 17.0203 29.6603 11.75 23.1806 11.75ZM8.92393 16.0724C8.79076 16.0724 8.65603 16.0395 8.53227 15.9675C8.15783 15.7513 8.02937 15.2734 8.24557 14.8974C9.46443 12.784 11.1549 10.9181 13.1336 9.49713C13.4845 9.24333 13.9749 9.32323 14.2271 9.67573C14.4793 10.0282 14.3979 10.517 14.0485 10.7693C12.2484 12.0602 10.7099 13.7585 9.60073 15.6808C9.45816 15.9314 9.1934 16.0724 8.92393 16.0724ZM35.7202 45.0824C35.4554 45.0824 35.1969 44.9477 35.0497 44.7048C34.8256 44.3351 34.9447 43.8526 35.3144 43.6285C39.5538 41.0655 42.9425 37.1488 44.8554 32.5961C45.0215 32.1966 45.4837 32.0101 45.88 32.1762C46.2795 32.3438 46.4675 32.8029 46.2999 33.2008C44.2585 38.0575 40.6474 42.2373 36.126 44.968C35.9991 45.0464 35.8596 45.0824 35.7202 45.0824ZM32.5869 46.2167C32.5869 46.6475 32.2344 47 31.8035 47C31.3727 47 31.0202 46.6475 31.0202 46.2167C31.0202 45.7858 31.3727 45.4333 31.8035 45.4333C32.2344 45.4333 32.5869 45.7858 32.5869 46.2167ZM0.783532 14.8833C0.683266 14.8833 0.578299 14.863 0.481166 14.8222C0.0816657 14.6562 -0.106334 14.1956 0.0612991 13.7976C2.10267 8.93627 5.7201 4.7564 10.2478 2.02257C10.6159 1.80167 11.1 1.91603 11.3241 2.28733C11.5481 2.65707 11.429 3.1396 11.0593 3.36363C6.81206 5.9267 3.42023 9.84807 1.50577 14.4039C1.38043 14.7032 1.08903 14.8833 0.783532 14.8833ZM15.3535 0.783333C15.3535 1.21417 15.001 1.56667 14.5702 1.56667C14.1394 1.56667 13.7869 1.21417 13.7869 0.783333C13.7869 0.3525 14.1394 0 14.5702 0C15.001 0 15.3535 0.3525 15.3535 0.783333Z" fill="#231F20"/>
</svg>
